<!-- icon666.com - MILLIONS vector ICONS FREE --><svg id="svg8" viewBox="0 0 8.4666665 8.4666669" xmlns="http://www.w3.org/2000/svg" xmlns:svg="http://www.w3.org/2000/svg"><g id="layer1" opacity=".99" transform="translate(0 -288.533)"><path id="rect841" d="m5.4433594 1c-1.2862065-.00015118-2.4391831.8277762-2.8476563 2.0488281l-1.5449219 4.6347657c-.0340322.1026753-.051182.2101916-.0507812.3183593l-.003906 1.9999999c0 1.292786.84565045 2.3938 2.00390625 2.810547v12.375c-1.15825095.416738-2.0039065 1.519684-2.0039065 2.8125v2c-.00211738.555317.44858945 1.006024 1.00390625 1.003906h6.0019531c1.3636038.03062 1.3636038-2.030615 0-2h-5.0058593v-1.003906c0-.571313.4345429-.998047 1.0058593-.998047h23.9980469c.571316 0 1.003906.426734 1.003906.998047v1.003906h-17c-1.363604-.03062-1.363604 2.030615 0 2h17.996094c.552263-.002208.9982-.451642.996094-1.003906v-2c0-1.292816-.839795-2.395762-1.996094-2.8125v-12.375c1.156304-.416747 1.996094-1.517761 1.996094-2.810547v-1.9160155c.01198-.135908-.004-.2728305-.04687-.4023437l-1.544927-4.6347657c-.408473-1.2210519-1.56145-2.04897928-2.847656-2.0488281zm0 2h21.1132816c.434311-.0000756.811875.270995.949218.6816406l1.105469 3.3183594h-25.2226561l1.1054687-3.3183594c.1373443-.4105701.5149068-.6817162.9492188-.6816406zm-2.4472656 6h2.0019531v1.001953c0 .571314-.4248008.996094-.9960938.996094-.5712936 0-1.0058593-.42478-1.0058593-.996094zm4.0019531 0h2v1.001953c0 .571314-.4248004.996094-.9960938.996094-.5712937 0-1.0039062-.42478-1.0039062-.996094zm4.0000001 0h2.001953v1.001953c0 .571314-.4248.996094-.996094.996094-.571293 0-1.005859-.42478-1.005859-.996094zm4.001953 0h2v1.001953c0 .571314-.432613.996094-1.003906.996094-.571294 0-.996094-.42478-.996094-.996094zm4.001953 0h2v1.001953c0 .571314-.432613.996094-1.003906.996094-.571294 0-.996094-.42478-.996094-.996094zm4 0h2v1.001953c0 .571314-.432613.996094-1.003906.996094-.571294 0-.996094-.42478-.996094-.996094zm4.001953 0h2v1.001953c0 .571314-.432613.996094-1.003906.996094-.571294 0-.996094-.42478-.996094-.996094zm-21.003906 3.212891c.5344098.482334 1.2334923.787109 2.0019531.787109.7688576 0 1.4672099-.304333 1.9999999-.787109.53441.482334 1.233493.787109 2.001953.787109.767482 0 1.463643-.303913 1.996094-.785156.532451.481243 1.228612.785156 1.996094.785156.76846 0 1.467543-.304775 2.001953-.787109.53279.482776 1.231142.787109 2 .787109.768461 0 1.467543-.304775 2.001953-.787109.532693.482334 1.229586.787109 1.998047.787109s1.467543-.304775 2.001953-.787109c.289057.261922.626878.465207 1 .599609v12.189453h-2v-7.001953c0-1.644699-1.355297-3-3-3h-12c-1.6447022 0-3 1.355301-3 3v7.001953h-2v-12.189453c.3732546-.134262.7108017-.337751 1-.599609zm4 4.787109h5v8h-6v-7c0-.571313.4286991-1 1-1zm7 0h5c.571301 0 1 .428687 1 1v7h-6z" fill-rule="evenodd" opacity="1" transform="matrix(.265 0 0 .265 0 288.533)" font-variant-ligatures="normal" font-variant-position="normal" font-variant-caps="normal" font-variant-numeric="normal" font-variant-alternates="normal" font-feature-settings="normal" text-indent="0" text-align="start" text-decoration-line="none" text-decoration-style="solid" text-decoration-color="rgb(0,0,0)" text-transform="none" text-orientation="mixed" white-space="normal" shape-padding="0" isolation="auto" mix-blend-mode="normal" solid-color="rgb(0,0,0)" solid-opacity="1" vector-effect="none" paint-order="stroke fill markers"/></g></svg>